<svg xmlns="http://www.w3.org/2000/svg" id="Icon__blue1" width="44.995" height="43.952" viewBox="0 0 44.995 43.952"><path id="Path_25" data-name="Path 25" d="M36.78,23.276V10.57A4.077,4.077,0,0,0,32.7,6.492H27.629V5.07a1.47,1.47,0,1,0-2.94,0V6.445H14.59V5.07a1.47,1.47,0,1,0-2.94,0V6.445H6.578A4.077,4.077,0,0,0,2.5,10.522V32.712a4.077,4.077,0,0,0,4.078,4.078H23.219A12.179,12.179,0,1,0,36.78,23.276ZM6.578,9.384h5.073v1.375a1.47,1.47,0,0,0,2.94,0V9.384h10.1v1.375a1.47,1.47,0,1,0,2.94,0V9.384H32.7a1.174,1.174,0,0,1,1.185,1.185v4.978H5.44V10.57A1.164,1.164,0,0,1,6.578,9.384ZM5.44,32.759V18.44H33.887v4.836A12.183,12.183,0,0,0,23.267,33.9H6.578A1.154,1.154,0,0,1,5.44,32.759Zm29.918,11.9a9.269,9.269,0,1,1,9.293-9.246A9.308,9.308,0,0,1,35.357,44.66Z" transform="translate(-2.5 -3.6)" fill="#075be8"></path><path id="Path_26" data-name="Path 26" d="M74.147,61.978H71.54V58.47a1.47,1.47,0,0,0-2.94,0v4.978a1.477,1.477,0,0,0,1.47,1.47h4.078a1.47,1.47,0,0,0,0-2.94Z" transform="translate(-37.26 -31.681)" fill="#075be8"></path></svg>
